<svg aria-hidden="true" style="position: absolute; width: 0; height: 0; overflow: hidden;" version="1.1" xmlns="http://www.w3.org/2000/svg" xmlns:xlink="http://www.w3.org/1999/xlink">
<defs>
<symbol id="icon-instagram" viewBox="0 0 32 32">
<path fill="none" stroke="#59be29" style="stroke: var(--color1, #59be29)" stroke-linejoin="round" stroke-linecap="round" stroke-miterlimit="4" stroke-width="2.9091" d="M23.273 1.455h-14.545c-4.017 0-7.273 3.256-7.273 7.273v14.545c0 4.017 3.256 7.273 7.273 7.273h14.545c4.017 0 7.273-3.256 7.273-7.273v-14.545c0-4.017-3.256-7.273-7.273-7.273z"></path>
<path fill="none" stroke="#59be29" style="stroke: var(--color1, #59be29)" stroke-linejoin="round" stroke-linecap="round" stroke-miterlimit="4" stroke-width="2.9091" d="M21.818 15.083c0.18 1.211-0.027 2.447-0.591 3.533s-1.455 1.967-2.549 2.517c-1.093 0.55-2.332 0.742-3.54 0.547s-2.324-0.765-3.19-1.63-1.436-1.982-1.63-3.19c-0.194-1.208-0.003-2.447 0.547-3.54s1.431-1.985 2.517-2.549c1.086-0.564 2.323-0.77 3.533-0.591 1.235 0.183 2.378 0.758 3.261 1.641s1.458 2.026 1.641 3.261z"></path>
<path fill="none" stroke="#59be29" style="stroke: var(--color1, #59be29)" stroke-linejoin="round" stroke-linecap="round" stroke-miterlimit="4" stroke-width="2.9091" d="M24 8h0.015"></path>
</symbol>
<symbol id="icon-twitter" viewBox="0 0 38 32">
<path fill="none" stroke="#59be29" style="stroke: var(--color1, #59be29)" stroke-linejoin="round" stroke-linecap="round" stroke-miterlimit="4" stroke-width="3.2" d="M36.8 1.616c-1.532 1.081-3.229 1.907-5.024 2.448-0.964-1.108-2.244-1.893-3.669-2.25s-2.924-0.267-4.296 0.257c-1.372 0.524-2.55 1.456-3.375 2.671s-1.256 2.654-1.237 4.122v1.6c-2.812 0.073-5.598-0.551-8.11-1.815s-4.673-3.131-6.29-5.433c0 0-6.4 14.4 8 20.8-3.295 2.237-7.221 3.358-11.2 3.2 14.4 8 32 0 32-18.4-0.001-0.446-0.044-0.89-0.128-1.328 1.633-1.61 2.785-3.644 3.328-5.872v0z"></path>
</symbol>
<symbol id="icon-facebook" viewBox="0 0 19 32">
<path fill="none" stroke="#59be29" style="stroke: var(--color1, #59be29)" stroke-linejoin="round" stroke-linecap="round" stroke-miterlimit="4" stroke-width="2.9091" d="M17.455 1.455h-4.364c-1.929 0-3.779 0.766-5.143 2.13s-2.13 3.214-2.13 5.143v4.364h-4.364v5.818h4.364v11.636h5.818v-11.636h4.364l1.455-5.818h-5.818v-4.364c0-0.386 0.153-0.756 0.426-1.029s0.643-0.426 1.029-0.426h4.364v-5.818z"></path>
</symbol>
</defs>
</svg>
